<svg width="78" height="78" viewBox="0 0 78 78" fill="none" xmlns="http://www.w3.org/2000/svg">
<rect width="78" height="78" rx="20" fill="white"/>
<path d="M53.5069 16.1503C48.9192 10.5544 43.6987 9 39.7438 9C34.3651 9 29.6192 11.487 26.6135 14.285C21.393 18.9482 9.21188 37.4456 16.0143 55.943C16.9635 58.5855 18.7037 61.0725 21.8676 63.5596L25.6643 62.7824L28.0372 57.4974L27.2463 64.0259L24.7151 65.4249C25.1897 65.7358 25.6643 65.8912 26.1389 66.2021C28.9864 67.601 34.5233 69 39.2692 69C45.1225 69 48.6028 68.2228 51.7667 66.9793C57.1454 64.8031 60.7839 59.3627 62.2077 54.8549C68.061 37.601 58.0946 21.5907 53.5069 16.1503ZM41.0094 22.9896C41.8004 22.9896 45.4389 25.3212 46.2298 26.8756C47.0208 28.4301 47.0208 29.9845 46.2298 30.1399C45.4389 30.2953 43.8569 31.5389 42.5913 31.8497C41.3258 32.1606 41.8004 30.6062 41.8004 29.5181C41.8004 28.4301 40.0602 24.6995 40.0602 24.6995C39.111 22.3679 40.2184 22.9896 41.0094 22.9896ZM36.2635 22.057C37.6872 21.2798 37.0545 22.8342 37.0545 23.9223C37.0545 25.0104 35.6307 29.0518 36.1053 29.9845C36.5799 30.9171 35.1561 32.7824 33.8905 32.7824C33.7323 32.7824 33.5741 32.7824 33.4159 32.7824L32.4667 29.9845L32.1504 25.943C33.7323 24.2332 35.4725 22.5233 36.2635 22.057ZM29.6192 30.1399C29.7774 29.3627 30.7266 27.9637 31.834 26.5648V29.2073L32.9413 32.9378C32.1504 32.7824 31.6758 32.4715 31.6758 32.4715C30.0938 32.4715 29.1446 32.0052 29.6192 30.1399ZM22.8168 35.2694C24.8733 29.0518 26.7717 29.829 26.7717 30.2953C26.7717 30.7617 26.6135 32.6269 28.0372 33.5596C29.461 34.4922 27.4045 36.513 26.2971 36.0466C25.1897 35.5803 25.1897 36.513 23.9241 36.8238C22.5004 37.1347 22.8168 35.2694 22.8168 35.2694ZM27.4045 47.7047C24.0823 46.3057 21.7094 43.0415 23.4496 42.2643C23.4496 42.2643 25.5061 41.4871 26.6135 40.7098C27.7209 39.9326 28.8282 39.3109 30.0938 39.9326C31.043 40.399 32.3085 40.5544 32.7831 40.2435L36.1053 44.9067L40.2184 53.456C37.0545 53.6114 33.8905 53.6114 32.3086 52.3679C29.9356 50.8135 30.7266 49.1036 27.4045 47.7047ZM38.9528 61.3834C37.2127 60.7617 38.1618 59.9845 36.5799 58.4301C34.9979 56.7202 37.3708 56.4093 37.3708 56.4093C37.3708 56.4093 38.9528 56.5648 40.693 56.4093C41.0094 56.4093 41.1676 56.4093 41.3258 56.4093L42.9077 59.6736C41.8004 60.7617 40.0602 61.6943 38.9528 61.3834ZM43.0659 59.5181L41.6421 56.2539C42.9077 56.0985 43.8569 55.943 44.1733 57.342C44.1733 57.8083 43.6987 58.7409 43.0659 59.5181ZM51.9249 45.0622C51.6085 46.772 50.1848 50.658 47.4954 52.3679L45.1225 45.0622C45.1225 45.0622 46.0716 50.0363 46.7044 52.8342C46.0716 53.1451 45.5971 53.3005 44.9643 53.3005C43.6987 53.456 42.1167 53.456 40.693 53.6114L36.5799 44.1295L33.4159 39.6218L33.5741 38.2228C34.0487 37.7565 34.8397 37.1347 35.6307 36.8238C37.0544 36.0466 38.6364 36.3575 40.693 36.8238C42.7495 37.2902 44.4897 38.3782 44.0151 39.3109C43.5405 40.399 44.3315 41.1762 45.9134 41.1762C47.4954 41.1762 48.761 41.4871 49.552 42.2643C50.343 43.1969 52.2413 42.886 51.9249 45.0622ZM53.6651 36.8238C52.2413 36.6684 52.2413 38.0674 50.9757 38.3782C49.7102 38.5337 49.2356 36.3575 49.552 34.9586C49.8684 33.5596 49.552 31.5389 49.552 31.5389C49.552 28.1192 54.7725 33.8705 56.1962 35.7358C57.7782 37.4456 55.0889 36.9793 53.6651 36.8238Z" fill="#8EAA5C"/>
</svg>
