<svg width="101" height="40" fill="none" xmlns="http://www.w3.org/2000/svg"><path d="M.916 32.58h.96l1.701 4.094h.044l1.702-4.094h.96v5.245h-.786V34.03h-.043l-1.571 3.795h-.567l-1.57-3.795H1.7v3.795H.916V32.58ZM10.34 37.868c-.393 0-.742-.086-1.004-.256-.305-.17-.523-.384-.654-.682-.175-.299-.218-.64-.218-1.066 0-.384.087-.768.218-1.067.175-.298.393-.554.654-.724.262-.171.611-.256.96-.256.218 0 .437.042.655.127.218.086.392.171.567.342.174.17.305.34.393.597.087.256.13.554.13.895v.256H8.857v-.554H11.3c0-.213-.044-.384-.131-.555a1.014 1.014 0 0 0-.35-.383c-.13-.086-.348-.128-.523-.128a.891.891 0 0 0-.567.17c-.174.085-.305.256-.393.427-.087.17-.13.34-.13.554v.47c0 .255.043.468.13.681.088.171.219.342.393.427.175.085.35.128.61.128.132 0 .263 0 .393-.043a.707.707 0 0 0 .306-.17c.087-.086.175-.171.218-.299l.742.128c-.044.213-.175.384-.306.554-.174.17-.349.299-.567.384-.262 0-.523.043-.785.043ZM15.924 33.86v.596h-2.181v-.597h2.181Zm-1.614-.939h.785v3.753c0 .128.044.256.088.34a.336.336 0 0 0 .174.171c.087.043.131.043.218.043h.305l.132.64c-.044 0-.131.042-.175.042-.087 0-.174.043-.305.043a1.23 1.23 0 0 1-.568-.128 1.104 1.104 0 0 1-.436-.341c-.13-.17-.174-.341-.174-.597v-3.966h-.044ZM19.022 37.91c-.262 0-.48-.042-.698-.127-.218-.086-.35-.214-.48-.427-.13-.17-.175-.384-.175-.64 0-.213.044-.383.131-.554.088-.128.218-.256.35-.341.13-.085.305-.128.48-.17.174-.043.348-.086.566-.086.262-.043.437-.043.568-.085.13 0 .261-.043.305-.085.087-.043.087-.129.087-.214 0-.213-.043-.383-.174-.511s-.306-.171-.567-.171c-.262 0-.48.043-.611.17-.131.129-.262.256-.306.384l-.741-.17c.087-.256.218-.427.392-.597.175-.128.35-.256.567-.341.219-.086.437-.086.699-.086.174 0 .349 0 .523.043.175.043.35.085.524.213.174.085.305.256.392.427.088.17.131.426.131.682v2.601H20.2v-.554h-.044c-.043.085-.13.213-.218.298-.087.086-.218.17-.392.256-.088.043-.262.085-.524.085Zm.174-.64c.219 0 .393-.042.568-.127.174-.085.261-.213.349-.341a.809.809 0 0 0 .13-.427v-.511c-.043.042-.087.042-.174.085-.087.043-.174.043-.262.043-.087 0-.218.042-.305.042s-.175.043-.262.043c-.13 0-.305.042-.436.085-.131.043-.218.128-.306.17a.478.478 0 0 0-.13.342c0 .17.087.34.218.426.218.128.392.17.61.17ZM26.308 32.58h.96l1.701 4.094h.044l1.701-4.094h.96v5.245h-.698V34.03h-.043l-1.571 3.795h-.654l-1.571-3.795h-.087v3.795h-.786V32.58h.044ZM35.688 37.868c-.393 0-.742-.086-1.003-.256-.306-.17-.524-.384-.655-.682-.174-.299-.218-.64-.218-1.066 0-.384.087-.768.218-1.067.175-.298.393-.554.655-.724.261-.171.61-.256.96-.256.218 0 .436.042.654.127.218.086.392.171.567.342.175.17.305.34.393.597.087.256.13.554.13.895v.256h-3.184v-.554h2.443c0-.213-.044-.384-.131-.555a1.016 1.016 0 0 0-.349-.383c-.13-.086-.35-.128-.524-.128a.891.891 0 0 0-.567.17c-.174.085-.305.256-.392.427-.088.17-.131.34-.131.554v.47c0 .255.043.468.13.681.088.171.219.342.393.427.175.085.35.128.611.128.13 0 .262 0 .393-.043a.708.708 0 0 0 .305-.17c.087-.086.175-.171.218-.299l.742.128c-.044.213-.175.384-.305.554-.175.17-.35.299-.568.384-.218 0-.48.043-.785.043ZM39.397 37.825v-3.923h.741v.64h.044c.087-.214.218-.384.392-.512.175-.128.437-.17.699-.17.261 0 .48.042.698.17.174.128.305.298.392.512h.044c.087-.214.262-.384.436-.512.218-.128.48-.17.742-.17.349 0 .654.127.872.34.218.214.35.555.35 1.024v2.644h-.742v-2.559c0-.256-.087-.469-.218-.597s-.306-.17-.524-.17a.96.96 0 0 0-.61.213.912.912 0 0 0-.219.597v2.516h-.785v-2.602a.699.699 0 0 0-.218-.511.73.73 0 0 0-.524-.213c-.13 0-.305.042-.392.127-.131.086-.219.171-.306.299a.845.845 0 0 0-.13.47v2.43h-.742v-.043ZM48.733 37.868c-.393 0-.742-.086-1.003-.256-.306-.17-.524-.384-.655-.682-.174-.299-.218-.64-.218-1.066 0-.384.087-.768.218-1.067.175-.298.393-.554.654-.724.262-.171.611-.256.96-.256.218 0 .437.042.655.127.218.086.392.171.567.342.174.17.305.34.393.597.087.256.13.554.13.895v.256H47.25v-.554h2.443c0-.213-.044-.384-.131-.555a1.015 1.015 0 0 0-.35-.383c-.13-.086-.348-.128-.523-.128a.891.891 0 0 0-.567.17c-.174.085-.305.256-.392.427-.088.17-.131.34-.131.554v.47c0 .255.043.468.13.681.088.171.219.342.393.427.175.085.35.128.611.128.13 0 .262 0 .393-.043a.707.707 0 0 0 .305-.17c.087-.086.175-.171.218-.299l.742.128c-.044.213-.175.384-.306.554-.174.17-.349.299-.567.384-.218 0-.48.043-.785.043ZM56.368 32.58v5.245h-.829V32.58h.829ZM58.593 37.825v-3.923h.742v.64h.043c.088-.214.218-.384.393-.512.175-.128.393-.17.61-.17h.35v.724c-.044 0-.087 0-.175-.042h-.261a.895.895 0 0 0-.48.127c-.131.086-.262.171-.35.299a.845.845 0 0 0-.13.47v2.387h-.742ZM64.09 37.868c-.392 0-.698-.086-1.003-.256a1.804 1.804 0 0 1-.655-.725c-.174-.341-.218-.64-.218-1.066 0-.426.087-.768.218-1.066.175-.299.393-.555.655-.725.262-.17.61-.256 1.003-.256.393 0 .698.085 1.004.256.305.17.48.426.654.725.175.298.218.682.218 1.066 0 .426-.087.768-.218 1.066-.13.298-.392.554-.654.725-.306.17-.655.256-1.004.256Zm0-.64c.262 0 .436-.043.611-.17.175-.128.262-.299.35-.512.086-.213.13-.427.13-.682 0-.256-.044-.47-.13-.683a1.533 1.533 0 0 0-.35-.511c-.174-.128-.349-.171-.61-.171-.262 0-.437.043-.611.17-.175.128-.262.299-.35.512-.087.214-.13.427-.13.683 0 .255.043.469.13.682.088.213.219.384.35.512.13.127.349.17.61.17ZM68.715 35.48v2.345h-.785v-3.923h.741v.64h.044a1 1 0 0 1 .436-.512c.218-.128.436-.17.742-.17.262 0 .523.042.698.17.218.128.349.298.48.512.13.213.174.511.174.81v2.516h-.785v-2.474c0-.298-.087-.511-.218-.682-.131-.17-.35-.256-.61-.256a.895.895 0 0 0-.48.128c-.132.085-.263.17-.35.341-.044.171-.087.342-.087.555ZM73.776 39.275c-.131 0-.218 0-.306-.043-.087 0-.174-.042-.218-.042l.175-.64c.13.043.261.043.392.043a.4.4 0 0 0 .306-.128.82.82 0 0 0 .218-.384l.087-.256-1.483-3.966h.829l1.003 3.07h.044l1.003-3.07h.83l-1.659 4.435c-.087.214-.174.384-.305.512s-.262.256-.436.341c-.088.085-.262.128-.48.128ZM86.123 34.286h-.83c-.043-.17-.087-.341-.174-.47-.087-.127-.174-.255-.305-.34-.131-.086-.262-.171-.436-.214a1.599 1.599 0 0 0-.48-.085c-.306 0-.568.085-.83.213-.261.17-.436.384-.567.682-.13.299-.218.64-.218 1.067 0 .426.088.767.218 1.066.131.298.35.511.568.682.261.17.523.213.829.213.174 0 .349-.042.48-.085.13-.043.305-.128.436-.213.13-.086.218-.213.305-.341a1.26 1.26 0 0 0 .175-.427h.829a2.07 2.07 0 0 1-.262.725c-.131.213-.306.384-.48.554-.174.171-.436.256-.654.342a2.594 2.594 0 0 1-.83.127 2.27 2.27 0 0 1-1.221-.34 2.313 2.313 0 0 1-.873-.939c-.218-.384-.305-.895-.305-1.45 0-.554.087-1.023.305-1.45.219-.383.48-.724.873-.938a2.386 2.386 0 0 1 1.222-.34c.305 0 .567.042.785.127.262.085.48.213.654.341.218.17.35.341.48.554.175.384.262.64.306.939ZM89.831 37.868c-.393 0-.698-.086-1.003-.256a1.804 1.804 0 0 1-.655-.725c-.174-.298-.218-.64-.218-1.066 0-.426.087-.768.218-1.066.175-.299.393-.555.655-.725.261-.17.61-.256 1.003-.256.393 0 .698.085 1.004.256.305.17.48.426.654.725.174.298.218.682.218 1.066 0 .426-.087.768-.218 1.066-.175.298-.393.554-.654.725-.306.17-.611.256-1.004.256Zm0-.64c.262 0 .436-.043.61-.17.175-.128.263-.299.35-.512.087-.213.13-.427.13-.682 0-.256-.043-.47-.13-.683a1.53 1.53 0 0 0-.35-.511c-.174-.128-.348-.171-.61-.171s-.436.043-.61.17c-.175.128-.263.299-.35.512-.087.214-.13.427-.13.683 0 .255.043.469.13.682.088.213.218.384.35.512.13.127.392.17.61.17ZM94.107 33.262a.502.502 0 0 1-.35-.128.478.478 0 0 1-.13-.34c0-.129.043-.214.13-.342a.502.502 0 0 1 .35-.128c.13 0 .261.043.349.128.087.085.13.213.13.341 0 .128-.043.213-.13.341-.131.086-.219.128-.35.128Zm-.393 4.563v-3.923h.785v3.923h-.785ZM97.422 35.48v2.345h-.785v-3.923h.742v.64h.043c.088-.214.219-.384.437-.512s.436-.17.741-.17c.262 0 .524.042.698.17.219.128.35.298.48.512.131.213.175.511.175.81v2.516h-.785v-2.474c0-.298-.088-.511-.219-.682-.13-.17-.349-.256-.61-.256a.895.895 0 0 0-.48.128c-.131.085-.262.17-.35.341-.043.171-.087.342-.087.555Z" fill="#000"/><path d="M18.76 15.139c-.218-.47-.349-1.322-.349-2.602 0-1.194.044-2.601.087-4.136 0-.512.044-1.28.044-2.303l-.087-.085h-2.443a.454.454 0 0 1-.437-.299c-.13-.213-.174-.511-.261-.853-.088-.426-.131-1.066-.131-1.833v-.341c0-.128 0-.256.043-.342v-.554c0-.085.044-.17.131-.213a.4.4 0 0 1 .306-.128 2.17 2.17 0 0 1 .654-.085h1.658c.349 0 .654 0 .829.042h8.769c.567 0 .96 0 1.135.043.087 0 .174.043.305.043.13 0 .218.042.305.085.088.042.175.085.175.17.044.086.044.171.044.299v3.54c0 .17-.088.255-.219.34-.087.043-.218.043-.349.043H27.53c-.35 0-.611 0-.786-.043h-.654c-.131 0-.218.043-.218.086 0 0 0 .042-.044.042 0 .043-.043.043-.043.086v1.066c0 .213 0 .384-.044.512 0 .426-.044 1.321-.087 2.729l-.044.64c-.044.596-.044 1.023-.087 1.321v2.047c0 .47-.088.81-.306.938-.174.086-.305.128-.392.128l-.567.043c-.568 0-.96 0-1.222.043l-2.312.042c-.306 0-.83.043-1.571.043-.131-.128-.305-.256-.393-.554ZM42.363 16.247l-.043-.042c-.218-.128-.393-.256-.524-.427-.044-.085-.087-.128-.087-.128 0-.042-.044-.042-.044-.042l-.043-.043-.088-.085-1.832-2.644a9.87 9.87 0 0 0-.35-.597c-.086-.086-.174-.213-.26-.341-.044-.086-.132-.128-.175-.128-.044 0-.088.042-.088.085 0 .043-.043.085-.043.17-.044.384-.044.896-.044 1.578 0 .64-.044 1.152-.087 1.536-.044.17-.087.298-.175.298h-.13c-.044 0-.044-.042-.088-.042-.48.042-1.221.085-2.225.17-.96.043-1.701.085-2.225.085-.13 0-.262 0-.349-.042h-1.047l-.785-.256-.044-.17v-.256c0-.086 0-.257-.044-.47-.087-.895-.087-1.236-.087-1.023a34.11 34.11 0 0 1-.13-1.92l-.044-.81v-.682c0-.213-.044-.383-.044-.511l-.218-.555c-.044-.597-.044-1.151-.044-1.663v-.255c.044-.086.044-.214.044-.427v-.64c0-.298 0-.725-.044-1.322V3.326c0-.81.044-1.407.131-1.748.131-.512.35-.768.655-.768 1.614 0 3.228.043 4.886.086.349 0 .916 0 1.658.042l.829.043c1.134.042 1.92.042 2.356.042 1.832.086 3.228.555 4.144 1.408.437.34.742.81.96 1.279.218.512.306 1.023.306 1.62 0 .64-.131 1.28-.35 1.834a5.6 5.6 0 0 1-.828 1.237c-.35.341-.742.64-1.222.853a.998.998 0 0 1 .35.298c.043.086.174.17.305.299l.305.213c.044.085.087.128.13.213.044.086.132.128.175.213l1.004 1.237c.436.597.741 1.024.872 1.28.087.17.131.34.131.426a.516.516 0 0 1-.174.384 3.01 3.01 0 0 1-.524.426c-.174.128-.349.256-.61.384-.219.128-.393.213-.48.341l-.786.427c-.262.17-.567.298-.916.426 0 0-.044 0-.044.043 0 0-.043.042-.087.042a6.647 6.647 0 0 1-.698.256 1.502 1.502 0 0 1-.35.128c-.043.043-.086.043-.13.085-.044 0-.087.043-.13.043h-.088c0 .085-.044.128-.087.128h-.088c-.174-.299-.218-.299-.218-.299Zm-3.403-7.59c.437 0 .785-.213 1.047-.683.262-.383.393-.852.393-1.364.044-.299.044-.64.044-1.066v-.256c0-.341-.044-.682-.175-1.024-.13-.469-.349-.767-.698-.98a.959.959 0 0 0-.61-.214c-.088 0-.132.086-.175.256-.131.299-.218.81-.218 1.493a6.91 6.91 0 0 0-.088 1.023v.64c-.043.853-.043 1.535-.043 2.047v.042l.043.043.131.043h.35ZM58.331 14.797a14.7 14.7 0 0 1-2.53.939 11.54 11.54 0 0 1-2.749.34c-1.396 0-2.443-.298-3.185-.937-.61-.512-1.003-1.322-1.221-2.388-.131-.725-.218-1.834-.218-3.284 0-1.066.043-2.218.174-3.497 0-.213 0-.469.044-.853 0-.298.043-.725.043-1.279 0-.554.044-1.023.044-1.45 0-.213 0-.384-.044-.469-.043-.213-.043-.341-.043-.47 0-.212.261-.34.741-.34h1.31c.96-.043 1.832 0 2.704.085.611.043 1.047.128 1.396.213.393.086.655.256.786.427.13.213.174.597.174 1.108 0 .64 0 1.237-.043 1.791-.044.555-.044 1.024-.044 1.45 0 .086-.044.256-.044.47 0 .298 0 .767-.043 1.45-.044 1.279-.044 2.302-.044 3.155 0 .512.044.938.087 1.151.044.214.175.341.35.341.392 0 .828-.085 1.308-.298.306-.128.48-.256.611-.341v-8.7c-.044-.34-.087-.64-.087-.98-.044-.086-.044-.214-.044-.384v-.128c0-.256.044-.426.175-.554.087-.086.349-.128.741-.128.437 0 .96-.043 1.658-.086.218 0 .567 0 .96-.042.305 0 .524-.043.654-.086a.87.87 0 0 1 .306.043c.174 0 .305 0 .436.043l.655.042c.305 0 .741.086 1.221.171l.611.17c.13.043.218.086.262.171.043.043.043.128.043.213 0 1.322 0 2.687-.043 4.052-.48 9.68-7.112 8.87-7.112 8.87ZM66.926 7.079c0-.896 0-1.834.044-2.815 0-.98.043-1.876.13-2.729 0-.17.175-.298.524-.384.218-.042.567-.042 1.09-.042 1.179 0 2.052-.043 2.619-.086 1.745-.042 3.054-.042 3.926-.042h.96c1.222.042 2.138.085 2.792.128.218 0 .393.256.524.81.043.085.087.341.174.768.044.213.088.469.175.81v.384c0 .128-.087.213-.262.213-.044 0-.13-.043-.262-.043-.61 0-1.352.043-2.268.17l-1.178.086c-.48.043-.873.085-1.135.128-.043 0-.087.085-.174.256-.044.17-.131.597-.218 1.28l-.044.554c0 .17.044.298.087.34.044.043.131.086.306.086h1.963c.567 0 1.222.043 1.963.128h.262c.174.043.305.128.349.213.044.085.087.17.13.299l.088 1.919v.085c0 .256-.262.384-.785.426-.306.086-.916.128-1.745.128-.742 0-1.222 0-1.44-.042-.436 0-.698 0-.785.042-.175.043-.262.128-.306.256a1.933 1.933 0 0 0-.087.597c0 .17 0 .47-.044.81 0 .17-.043.427-.043.81.96 0 1.658 0 2.094-.042.48-.043 1.222-.085 2.094-.085.044 0 .131.042.175.17.087.128.174.47.349.981.087.299.174.64.261 1.066.044.085.044.213.044.341 0 .299-.13.47-.436.47-.393 0-.916 0-1.527.042-.35.043-.873.043-1.57.043-8.421-.299-8.814-8.53-8.814-8.53Z" fill="#030303"/><path d="M4.232 29.936H1.527c-.218 0-.349-.128-.393-.384a2.615 2.615 0 0 1-.087-.682c0-1.024 0-1.92-.044-2.687C.96 25.032.96 23.838.96 22.601v-3.838c0-.085.043-.213.13-.298a.38.38 0 0 1 .306-.17H7.68c.741-.043 1.308-.043 1.745-.043.742 0 1.44.128 2.138.426.785.299 1.44.81 1.92 1.535.566.896.872 1.962.872 3.241 0 1.194-.131 2.218-.436 3.028-.262.81-.699 1.492-1.31 2.004-.61.512-1.396.896-2.355 1.109-.96.213-2.182.341-3.665.341H4.232Zm2.661-2.303c.088 0 .218 0 .393-.042.044 0 .087-.043.13-.043.044 0 .044-.043.088-.043.131-.17.262-.511.393-1.023.087-.341.174-.896.305-1.663.044-.683.087-1.237.087-1.749v-.34c0-.3-.043-.768-.087-1.365-.087-.597-.218-1.024-.349-1.28-.13-.17-.262-.256-.349-.256-.087 0-.218 0-.305.043-.088.043-.131.043-.175.043-.043 0-.087.042-.174.085v2.09c0 .17 0 .469-.044.852v.427c-.044.597-.044.98-.044 1.236l-.087 2.943c.087.085.131.085.218.085ZM24.912 30.533h-.044c-.174-.085-.305-.213-.436-.341-.044-.043-.044-.085-.087-.085 0-.043-.044-.043-.044-.043h-.044l-.087-.085-1.483-2.218a2.856 2.856 0 0 0-.306-.469c-.087-.085-.174-.17-.218-.256-.043-.085-.087-.085-.13-.085-.044 0-.044 0-.088.043 0 .042-.044.085-.044.128-.043.298-.043.724-.043 1.279 0 .512-.044.938-.087 1.236-.044.171-.088.214-.175.214h-.087c-.044 0-.044-.043-.087-.043-.393.043-1.047.085-1.876.128-.786.043-1.44.085-1.833.085-.13 0-.218 0-.305-.042h-.873l-.654-.213-.044-.128v-.214c0-.085 0-.213-.043-.383-.044-.725-.088-.981-.088-.853-.043-.299-.043-.81-.13-1.578l-.044-.64v-.554c0-.17-.044-.299-.044-.427l-.043-.383c-.044-.47-.044-.939-.044-1.322V23.113c.043-.085.043-.17.043-.341v-.512c0-.256 0-.597-.043-1.066a7.158 7.158 0 0 1-.087-1.109c0-.64.043-1.108.13-1.407.088-.426.306-.64.524-.64 1.352 0 2.705 0 4.058.043.305 0 .785 0 1.396.043h.698c.96.042 1.614.042 1.963.042 1.527.086 2.661.427 3.447 1.11.349.298.61.639.785 1.023a3.2 3.2 0 0 1 .262 1.279c0 .512-.088 1.023-.306 1.492a3.7 3.7 0 0 1-.698.981 3.2 3.2 0 0 1-1.003.683c.087.042.174.127.305.213.044.042.131.128.262.213l.262.17c.043.043.087.128.13.171.044.043.088.128.131.17l.83 1.024c.392.47.61.81.741 1.024.087.17.131.255.131.34a.383.383 0 0 1-.13.3c-.088.084-.219.212-.437.34-.131.086-.306.214-.48.299a1.53 1.53 0 0 0-.393.256l-.654.34c-.218.129-.48.257-.742.342h-.043s-.044.043-.088.043c-.087.042-.261.085-.567.17-.044.043-.174.043-.305.086-.044.042-.088.042-.131.042h-.175c0 .043-.043.085-.087.085h-.087l-.131.171Zm-2.836-6.14c.349 0 .654-.171.873-.555.218-.341.305-.682.349-1.109.043-.256.043-.511.043-.853v-.17a3.12 3.12 0 0 0-.13-.853 1.275 1.275 0 0 0-.568-.81.95.95 0 0 0-.523-.17c-.044 0-.088.084-.131.212-.088.256-.175.64-.175 1.194a4.206 4.206 0 0 0-.087.81v.512c-.044.683-.044 1.237-.044 1.663v.043h.393v.085ZM30.409 29.936s-.044-.128-.087-.341v-.17c0-.129.043-.3.087-.512.044-.171.044-.256.044-.342 0-.085.043-.17.043-.213.35-1.62.698-3.07 1.047-4.307l1.222-5.458c0-.043 0-.043.044-.085.043-.043.087-.086.13-.086h.131c.131 0 .306 0 .48-.043.175-.042.35-.042.48-.042.262 0 .524 0 .742.043h.742c.043 0 .087 0 .174-.043H38.917c.654 0 1.09 0 1.308.043h.131c.044 0 .088 0 .131.042h.48c.175-.043.306-.043.48-.043a.4.4 0 0 1 .218.043c.087.043.131.043.218.043h.131c.044.043.087.043.131.085a.13.13 0 0 1 .044.085l1.221 5.459a52.338 52.338 0 0 1 1.047 4.307c0 .085.044.128.088.213 0 .085.043.17.043.341.044.128.044.256.044.341v.17c0 .171-.044.3-.087.385-.044.085-.131.085-.218.085H41.184v-.043c-.043-.042-.087-.042-.174-.042l-.044.042c0 .043 0 .043-.044.043h-.174c-.044-.043-.175-.043-.349-.043-.35-.042-.654-.042-.829-.042-.087-.085-.13-.299-.218-.64a6.035 6.035 0 0 1-.218-1.023c-.044-.17-.044-.299-.087-.384a5.675 5.675 0 0 1-.96.085h-1.091l-.13.555c-.175.767-.263 1.236-.394 1.407-.043 0-.087 0-.174.042-.044 0-.044.043-.087.043h-.088c-.087 0-.13 0-.174-.043.043-.042 0-.042-.044-.042l-.785.042h-.567c-.044.043-.087.043-.175.043H30.41Zm8.29-5.075c-.044-.17-.088-.469-.175-.938-.044-.128-.087-.426-.175-.938l-.13-.853a3.276 3.276 0 0 1-.088-.597v-.213c-.043-.043-.043-.128-.043-.17v-.086.085c0 .043 0 .086-.044.086v.085l-.044.213c0 .085-.043.17-.043.256 0 .085-.044.213-.044.341l-.087.47c-.131.724-.218 1.15-.218 1.279 0 .128-.044.298-.087.554-.044.085-.044.213-.088.384l-.13.81h.916l.13-.043h.044c.13 0 .262 0 .305.043.044 0 .088 0 .131.043.044 0 .088.042.131.042-.218-.597-.262-.853-.262-.853ZM48.995 30.32s-.35-.213-1.09-.64c-.83-.384-1.528-1.023-2.052-1.961-.61-1.024-.872-2.218-.872-3.625 0-.981.175-1.877.523-2.644a5.757 5.757 0 0 1 1.528-2.004c.654-.512 1.396-.939 2.268-1.194.873-.299 1.833-.427 2.836-.427 1.527 0 3.054.384 4.668 1.109l-.698 2.942c-.087-.042-.174-.042-.305-.085-.131-.043-.218-.085-.393-.085a12.777 12.777 0 0 0-1.44-.299c-.305-.042-.523-.085-.698-.085-.741 0-1.309.213-1.701.597-.48.47-.698 1.194-.698 2.26 0 .98.13 1.663.436 2.09.262.384.61.597 1.09.597.306 0 .655-.086 1.048-.256 0-.17 0-.47-.044-.853V23.71c0-.085 0-.17.044-.213.044-.043.087-.043.174-.043h3.883c.175.043.262.085.306.17a.788.788 0 0 1 .087.342v3.028c0 .042-.044.085-.044.17v.256c0 .725 0 1.237-.043 1.535-.044.47-.044.768-.131.896-.306 0-.524 0-.698.042h-.393.131-.175l-.043-.042h-.044l-.043.042h-2.399c-.045 0-.088-.042-.132-.085a1.951 1.951 0 0 1-.13-.725c-.044-.128-.044-.341-.088-.597-.087.597-.48 1.066-1.134 1.365-.568.298-1.31.469-2.182.469h-1.352ZM76.045 29.936h-.829l-.786-.17-.043-.128v-.171c-.044-.341-.044-.725-.044-1.194 0-.341 0-.597-.044-.768v-1.322a20.416 20.416 0 0 1-.087-1.748v-1.834l.044-1.748v-1.791c-.044-.256.043-.47.218-.597.13-.043.305-.085.61-.085.437 0 1.004 0 1.702-.043l.393-.043c.698-.042 1.134-.085 1.309-.085h.349c.174 0 .261.043.349.085.043.043.13.085.174.17.044.086.088.129.131.171.131.171.306.384.436.597.219.299.393.555.524.725l1.178 1.749.567.853c0-.299 0-.555.044-.725v-1.62l.043-1.237c0-.086.044-.171.044-.171 0-.043.044-.043.044-.085.043 0 .043-.043.043-.043.131-.128.306-.213.437-.256.13-.043.218-.043.305-.043h3.621c.306 0 .524.043.611.128.13.086.174.299.174.598V20.17l.044.17v8.487l-.087.639c-.044.256-.131.426-.306.469H83.33c-.218.043-.48 0-.698-.085a4.02 4.02 0 0 1-.349-.213l-1.788-2.474-.393-.64-.262-.383c-.043-.043-.043-.086-.087-.128l-.044-.043c-.087 0-.174.043-.174.128V28.358c-.044.128-.044.299-.044.512V29.552c0 .085-.043.17-.13.17-.044.043-.175.043-.306.043-.393.043-.742.043-.96.086-.13 0-.393.042-.742.042-.349.043-.698.043-1.003.043-.13.043-.218.043-.305 0ZM91.053 30.064c-.83-.213-1.527-.47-2.094-.81-.131-.427-.262-.853-.306-1.237a21.713 21.713 0 0 1-.262-1.791v-.043c.044-.128.088-.256.218-.298.437.256.873.469 1.31.597.392.128.872.213 1.352.213h.742a2.8 2.8 0 0 0 .828-.128c.175-.043.262-.17.306-.341l-.96-.47a16.647 16.647 0 0 1-1.963-1.065 3.642 3.642 0 0 1-1.31-1.62c-.13-.342-.174-.768-.174-1.195 0-1.023.306-1.876.96-2.516.567-.554 1.353-.98 2.313-1.194.828-.213 1.745-.298 2.748-.298.61 0 1.396.042 2.443.17.088.043.262.043.437.086l.523.085c.393.085.698.085.873.085 0 0 .043 0 .043.043l.088.085c.043.085.087.128.13.128l.044.384c0 .17 0 .341.044.554.043.299.043.597.043.938 0 .299 0 .512-.043.64a1.018 1.018 0 0 1-.306.512l-1.657-.213h-.437c-.392 0-.872.042-1.396.128l-.567.128c-.131.042-.218.042-.218.085 0 .298.174.554.567.767.174.086.349.17.523.214.175.042.306.127.35.127a5.67 5.67 0 0 1 2.268 1.28c.306.298.524.554.698.895.175.299.262.597.262.896 0 .17-.044.341-.087.554a3.98 3.98 0 0 1-1.004 2.26c-.567.555-1.309.981-2.181 1.237-.742.256-1.658.384-2.749.384-.698.043-1.527-.085-2.4-.256Z" fill="#000"/><path d="M70.242 16.034c-1.265-1.535-2.705-1.961-3.796-1.961-1.483 0-2.792.682-3.62 1.45-1.44 1.279-4.8 6.353-2.924 11.428.262.725.742 1.407 1.614 2.09l1.047-.214.655-1.45L63 29.17l-.699.383c.131.085.262.128.393.213.785.384 2.313.768 3.621.768 1.615 0 2.574-.213 3.447-.554 1.483-.597 2.487-2.09 2.88-3.326 1.614-4.734-1.135-9.126-2.4-10.619Zm-3.447 1.877c.218 0 1.222.64 1.44 1.066.218.426.218.852 0 .895-.218.043-.654.384-1.003.47-.35.085-.219-.342-.219-.64 0-.299-.48-1.323-.48-1.323-.261-.64.044-.469.262-.469Zm-1.309-.256c.393-.214.219.213.219.511 0 .299-.393 1.408-.262 1.663.13.256-.262.768-.611.768h-.13l-.263-.768-.087-1.108c.436-.47.916-.939 1.134-1.066Zm-1.832 2.217c.044-.213.305-.597.61-.98v.724l.306 1.024c-.218-.043-.349-.128-.349-.128-.436 0-.698-.128-.567-.64Zm-1.876 1.407c.567-1.705 1.09-1.492 1.09-1.364 0 .128-.043.64.35.895.392.256-.175.81-.48.683-.306-.128-.306.128-.655.213-.392.085-.305-.427-.305-.427Zm1.265 3.412c-.916-.384-1.57-1.28-1.09-1.493 0 0 .567-.213.872-.426.305-.213.61-.384.96-.213.262.128.61.17.742.085l.916 1.28 1.134 2.345c-.872.042-1.745.042-2.181-.299-.655-.426-.437-.895-1.353-1.28Zm3.185 3.753c-.48-.171-.218-.384-.654-.81-.437-.47.218-.555.218-.555s.436.043.916 0h.174l.437.895c-.306.299-.785.555-1.09.47Zm1.134-.512-.392-.896c.349-.042.61-.085.698.299 0 .128-.131.384-.306.597Zm2.444-3.966c-.088.469-.48 1.535-1.222 2.004l-.654-2.004s.261 1.364.436 2.132a1.012 1.012 0 0 1-.48.128c-.349.043-.785.043-1.178.085l-1.134-2.601-.873-1.237.044-.383c.13-.128.349-.299.567-.384.392-.213.829-.128 1.396 0s1.047.426.916.682c-.13.299.088.512.524.512.436 0 .785.085 1.003.298.218.256.742.17.655.768Zm.48-2.26c-.393-.043-.393.34-.742.426-.35.043-.48-.554-.393-.938.088-.384 0-.938 0-.938 0-.938 1.44.64 1.833 1.151.436.47-.306.341-.698.299Z" fill="#8EAA5C"/></svg>