<?xml version="1.0" encoding="utf-8"?>
<!-- Generator: Adobe Illustrator 23.0.2, SVG Export Plug-In . SVG Version: 6.00 Build 0)  -->
<svg version="1.1" id="Слой_6" xmlns="http://www.w3.org/2000/svg" xmlns:xlink="http://www.w3.org/1999/xlink" x="0px" y="0px"
	 viewBox="0 0 231.5 71.1" style="enable-background:new 0 0 231.5 71.1;" xml:space="preserve">
<style type="text/css">
	.st0{fill:#030303;}
	.st1{fill:#8EAA5C;}
</style>
<path class="st0" d="M43,35.5c-0.5-1.1-0.8-3.1-0.8-6.1c0-2.8,0.1-6.1,0.2-9.7c0-1.2,0.1-3,0.1-5.4l-0.2-0.2h-5.6
	c-0.4,0-0.8-0.2-1-0.7c-0.3-0.5-0.4-1.2-0.6-2c-0.2-1-0.3-2.5-0.3-4.3V6.3c0-0.3,0-0.6,0.1-0.8V4.7V4.2c0-0.2,0.1-0.4,0.3-0.5
	c0.2-0.2,0.4-0.3,0.7-0.3c0.3-0.1,0.8-0.2,1.5-0.2h3.8c0.8,0,1.5,0,1.9,0.1l1.9,0h18.2c1.3,0,2.2,0,2.6,0.1c0.2,0,0.4,0.1,0.7,0.1
	c0.3,0,0.5,0.1,0.7,0.2c0.2,0.1,0.4,0.2,0.4,0.4c0.1,0.2,0.1,0.4,0.1,0.7v8.3c0,0.4-0.2,0.6-0.5,0.8C67,14,66.7,14,66.4,14h-1.6
	h-1.7c-0.8,0-1.4,0-1.8-0.1h-1.5c-0.3,0-0.5,0.1-0.5,0.2c0,0,0,0.1-0.1,0.1c0,0.1-0.1,0.1-0.1,0.2v0.8v1.7c0,0.5,0,0.9-0.1,1.2
	c0,1-0.1,3.1-0.2,6.4L58.7,26c-0.1,1.4-0.1,2.4-0.2,3.1v4.8c0,1.1-0.2,1.9-0.7,2.2c-0.4,0.2-0.7,0.3-0.9,0.3l-1.3,0.1
	c-1.3,0-2.2,0-2.8,0.1l-5.3,0.1c-0.7,0-1.9,0.1-3.6,0.1C43.6,36.5,43.2,36.2,43,35.5z"/>
<path class="st0" d="M97.1,38.1C97.1,38.1,97.1,38.1,97.1,38.1c-0.6-0.4-1-0.7-1.3-1.1c-0.1-0.2-0.2-0.3-0.2-0.3
	c0-0.1-0.1-0.1-0.1-0.1l-0.1-0.1l-0.2-0.2L91,30.1c-0.2-0.4-0.5-0.9-0.8-1.4c-0.2-0.2-0.4-0.5-0.6-0.8c-0.1-0.2-0.3-0.3-0.4-0.3
	S89,27.7,89,27.8s-0.1,0.2-0.1,0.4c-0.1,0.9-0.1,2.1-0.1,3.7c0,1.5-0.1,2.7-0.2,3.6c-0.1,0.4-0.2,0.7-0.4,0.7h-0.3
	c-0.1,0-0.1-0.1-0.2-0.1c-1.1,0.1-2.8,0.2-5.1,0.4c-2.2,0.1-3.9,0.2-5.1,0.2c-0.3,0-0.6,0-0.8-0.1h-1.1h-0.9h-0.4L72.5,36l-0.1-0.4
	c0,0,0-0.1,0-0.2c0-0.1,0-0.2,0-0.4s0-0.6-0.1-1.1c-0.2-2.1-0.2-2.9-0.2-2.4c-0.1-0.9-0.2-2.4-0.3-4.5l-0.1-1.9c0-0.6,0-1.1,0-1.6
	s-0.1-0.9-0.1-1.2L71.1,21C71,19.6,71,18.3,71,17.1c0,0,0-0.1,0-0.2s0-0.2,0-0.4c0.1-0.2,0.1-0.5,0.1-1v-0.9V14c0-0.7,0-1.7-0.1-3.1
	c0-0.7,0-1.8,0-3.1c0-1.9,0.1-3.3,0.3-4.1c0.3-1.2,0.8-1.8,1.5-1.8c3.7,0,7.4,0.1,11.2,0.2c0.8,0,2.1,0,3.8,0.1l1.9,0.1
	c2.6,0.1,4.4,0.1,5.4,0.1c4.2,0.2,7.4,1.3,9.5,3.3c1,0.8,1.7,1.9,2.2,3c0.5,1.2,0.7,2.4,0.7,3.8c0,1.5-0.3,3-0.8,4.3
	c-0.5,1-1.1,2-1.9,2.9c-0.8,0.8-1.7,1.5-2.8,2c0.2,0.1,0.5,0.3,0.8,0.7c0.1,0.2,0.4,0.4,0.7,0.7l0.7,0.5c0.1,0.2,0.2,0.3,0.3,0.5
	c0.1,0.2,0.3,0.3,0.4,0.5l2.3,2.9c1,1.4,1.7,2.4,2,3c0.2,0.4,0.3,0.8,0.3,1c0,0.3-0.1,0.6-0.4,0.9c-0.3,0.3-0.6,0.6-1.2,1
	c-0.4,0.3-0.8,0.6-1.4,0.9c-0.5,0.3-0.9,0.5-1.1,0.8l-1.8,1c-0.6,0.4-1.3,0.7-2.1,1c0,0-0.1,0-0.1,0.1c0,0-0.1,0.1-0.2,0.1
	c-0.2,0.1-0.7,0.3-1.6,0.6c-0.2,0.1-0.4,0.2-0.8,0.3c-0.1,0.1-0.2,0.1-0.3,0.2c-0.1,0-0.2,0.1-0.3,0.1H98c0,0.2-0.1,0.3-0.2,0.3
	h-0.1h-0.1C97.2,38.1,97.1,38.1,97.1,38.1z M89.3,20.3c1,0,1.8-0.5,2.4-1.6c0.6-0.9,0.9-2,0.9-3.2c0.1-0.7,0.1-1.5,0.1-2.5v-0.6
	c0-0.8-0.1-1.6-0.4-2.4c-0.3-1.1-0.8-1.8-1.6-2.3c-0.4-0.3-0.8-0.5-1.4-0.5c-0.2,0-0.3,0.2-0.4,0.6c-0.3,0.7-0.5,1.9-0.5,3.5
	c-0.1,0.7-0.2,1.5-0.2,2.4v1.5c-0.1,2-0.1,3.6-0.1,4.8v0.1l0.1,0.1l0.3,0.1C88.5,20.3,89.3,20.3,89.3,20.3z"/>
<path class="st0" d="M133.7,34.7c-1.8,0.9-3.7,1.6-5.8,2.2c-2,0.5-4.1,0.8-6.3,0.8c-3.2,0-5.6-0.7-7.3-2.2c-1.4-1.2-2.3-3.1-2.8-5.6
	c-0.3-1.7-0.5-4.3-0.5-7.7c0-2.5,0.1-5.2,0.4-8.2c0-0.5,0-1.1,0.1-2c0-0.7,0.1-1.7,0.1-3s0.1-2.4,0.1-3.4c0-0.5,0-0.9-0.1-1.1
	c-0.1-0.5-0.1-0.8-0.1-1.1c0-0.5,0.6-0.8,1.7-0.8h3c2.2-0.1,4.2,0,6.2,0.2c1.4,0.1,2.4,0.3,3.2,0.5c0.9,0.2,1.5,0.6,1.8,1
	c0.3,0.5,0.4,1.4,0.4,2.6c0,1.5,0,2.9-0.1,4.2s-0.1,2.4-0.1,3.4c0,0.2-0.1,0.6-0.1,1.1c0,0.7,0,1.8-0.1,3.4c-0.1,3-0.1,5.4-0.1,7.4
	c0,1.2,0.1,2.2,0.2,2.7s0.4,0.8,0.8,0.8c0.9,0,1.9-0.2,3-0.7c0.7-0.3,1.1-0.6,1.4-0.8V8c-0.1-0.8-0.2-1.5-0.2-2.3
	c-0.1-0.2-0.1-0.5-0.1-0.9V4.5c0-0.6,0.1-1,0.4-1.3c0.2-0.2,0.8-0.3,1.7-0.3c1,0,2.2-0.1,3.8-0.2c0.5,0,1.3,0,2.2-0.1
	c0.7,0,1.2-0.1,1.5-0.2c0.2,0,0.4,0,0.7,0.1c0.4,0,0.7,0,1,0.1l1.5,0.1c0.7,0,1.7,0.2,2.8,0.4l1.4,0.4c0.3,0.1,0.5,0.2,0.6,0.4
	c0.1,0.1,0.1,0.3,0.1,0.5c0,3.1,0,6.3-0.1,9.5C148.9,36.6,133.7,34.7,133.7,34.7z"/>
<path class="st0" d="M153.4,16.6c0-2.1,0-4.3,0.1-6.6c0-2.3,0.1-4.4,0.3-6.4c0-0.4,0.4-0.7,1.2-0.9c0.5-0.1,1.3-0.1,2.5-0.1
	c2.7,0,4.7-0.1,6-0.2c4-0.1,7-0.1,9-0.1h2.2c2.8,0.1,4.9,0.2,6.4,0.3c0.5,0,0.9,0.6,1.2,1.9c0.1,0.2,0.2,0.8,0.4,1.8
	c0.1,0.5,0.2,1.1,0.4,1.9c0,0.2,0,0.4,0,0.6c0,0.2,0,0.3,0,0.3c0,0.3-0.2,0.5-0.6,0.5c-0.1,0-0.3-0.1-0.6-0.1
	c-1.4,0-3.1,0.1-5.2,0.4l-2.7,0.2c-1.1,0.1-2,0.2-2.6,0.3c-0.1,0-0.2,0.2-0.4,0.6c-0.1,0.4-0.3,1.4-0.5,3l-0.1,1.3
	c0,0.4,0.1,0.7,0.2,0.8c0.1,0.1,0.3,0.2,0.7,0.2h4.5c1.3,0,2.8,0.1,4.5,0.3h0.6c0.4,0.1,0.7,0.3,0.8,0.5s0.2,0.4,0.3,0.7l0.2,4.5
	v0.2c0,0.6-0.6,0.9-1.8,1c-0.7,0.2-2.1,0.3-4,0.3c-1.7,0-2.8,0-3.3-0.1c-1,0-1.6,0-1.8,0.1c-0.4,0.1-0.6,0.3-0.7,0.6
	c-0.1,0.3-0.2,0.8-0.2,1.4c0,0.4,0,1.1-0.1,1.9c0,0.4-0.1,1-0.1,1.9c2.2,0,3.8,0,4.8-0.1c1.1-0.1,2.8-0.2,4.8-0.2
	c0.1,0,0.3,0.1,0.4,0.4c0.2,0.3,0.4,1.1,0.8,2.3c0.2,0.7,0.4,1.5,0.6,2.5c0.1,0.2,0.1,0.5,0.1,0.8c0,0.7-0.3,1.1-1,1.1
	c-0.9,0-2.1,0-3.5,0.1c-0.8,0.1-2,0.1-3.6,0.1C154.3,35.9,153.4,16.6,153.4,16.6z"/>
<path d="M9.7,70.2H3.5c-0.5,0-0.8-0.3-0.9-0.9c-0.1-0.4-0.2-0.9-0.2-1.6c0-2.4,0-4.5-0.1-6.3c-0.1-2.7-0.1-5.5-0.1-8.4v-9
	c0-0.2,0.1-0.5,0.3-0.7C2.7,43,3,42.9,3.2,42.9h4.7c0.9,0,2,0,3.4,0c2,0,3.6,0,4.8,0h1.5c1.7-0.1,3-0.1,4-0.1c1.7,0,3.3,0.3,4.9,1
	c1.8,0.7,3.3,1.9,4.4,3.6c1.3,2.1,2,4.6,2,7.6c0,2.8-0.3,5.2-1,7.1c-0.6,1.9-1.6,3.5-3,4.7s-3.2,2.1-5.4,2.6s-5,0.8-8.4,0.8H9.7z
	 M15.8,64.8c0.2,0,0.5,0,0.9-0.1c0.1,0,0.2-0.1,0.3-0.1c0.1,0,0.1-0.1,0.2-0.1c0.3-0.4,0.6-1.2,0.9-2.4c0.2-0.8,0.4-2.1,0.7-3.9
	c0.1-1.6,0.2-2.9,0.2-4.1v-0.8c0-0.7-0.1-1.8-0.2-3.2c-0.2-1.4-0.5-2.4-0.8-3c-0.3-0.4-0.6-0.6-0.8-0.6c-0.2,0-0.5,0-0.7,0.1
	s-0.3,0.1-0.4,0.1s-0.2,0.1-0.4,0.2v4.9c0,0.4,0,1.1-0.1,2v1c-0.1,1.4-0.1,2.3-0.1,2.9l-0.2,6.9C15.5,64.8,15.6,64.8,15.8,64.8z"/>
<path d="M57.1,71.6C57.1,71.6,57.1,71.6,57.1,71.6c-0.5-0.2-0.8-0.5-1.1-0.8c-0.1-0.1-0.1-0.2-0.2-0.2c0-0.1-0.1-0.1-0.1-0.1h-0.1
	l-0.2-0.2L52,65.1c-0.2-0.4-0.4-0.7-0.7-1.1c-0.2-0.2-0.4-0.4-0.5-0.6c-0.1-0.2-0.2-0.2-0.3-0.2s-0.1,0-0.2,0.1
	c0,0.1-0.1,0.2-0.1,0.3c-0.1,0.7-0.1,1.7-0.1,3c0,1.2-0.1,2.2-0.2,2.9c-0.1,0.4-0.2,0.5-0.4,0.5h-0.2c-0.1,0-0.1-0.1-0.2-0.1
	c-0.9,0.1-2.4,0.2-4.3,0.3c-1.8,0.1-3.3,0.2-4.2,0.2c-0.3,0-0.5,0-0.7-0.1H39h-0.7h-0.4l-1.5-0.5l-0.1-0.3c0,0,0-0.1,0-0.2
	s0-0.2,0-0.3c0-0.2,0-0.5-0.1-0.9c-0.1-1.7-0.2-2.3-0.2-2c-0.1-0.7-0.1-1.9-0.3-3.7l-0.1-1.5c0-0.5,0-0.9,0-1.3c0-0.4-0.1-0.7-0.1-1
	l-0.1-0.9c-0.1-1.1-0.1-2.2-0.1-3.1v-0.1c0-0.1,0-0.2,0-0.3c0.1-0.2,0.1-0.4,0.1-0.8v-0.7v-0.5c0-0.6,0-1.4-0.1-2.5
	c-0.1-0.7-0.2-1.5-0.2-2.6c0-1.5,0.1-2.6,0.3-3.3c0.2-1,0.7-1.5,1.2-1.5c3.1,0,6.2,0,9.3,0.1c0.7,0,1.8,0,3.2,0.1h1.6
	c2.2,0.1,3.7,0.1,4.5,0.1c3.5,0.2,6.1,1,7.9,2.6c0.8,0.7,1.4,1.5,1.8,2.4s0.6,2,0.6,3c0,1.2-0.2,2.4-0.7,3.5
	c-0.4,0.8-0.9,1.6-1.6,2.3c-0.7,0.7-1.4,1.2-2.3,1.6c0.2,0.1,0.4,0.3,0.7,0.5c0.1,0.1,0.3,0.3,0.6,0.5l0.6,0.4
	c0.1,0.1,0.2,0.3,0.3,0.4c0.1,0.1,0.2,0.3,0.3,0.4l1.9,2.4c0.9,1.1,1.4,1.9,1.7,2.4c0.2,0.4,0.3,0.6,0.3,0.8c0,0.3-0.1,0.5-0.3,0.7
	c-0.2,0.2-0.5,0.5-1,0.8c-0.3,0.2-0.7,0.5-1.1,0.7s-0.7,0.4-0.9,0.6l-1.5,0.8c-0.5,0.3-1.1,0.6-1.7,0.8h-0.1c0,0-0.1,0.1-0.2,0.1
	c-0.2,0.1-0.6,0.2-1.3,0.4c-0.1,0.1-0.4,0.1-0.7,0.2C58.4,71,58.3,71,58.2,71S58,71,58,71h-0.2c0,0.1-0.1,0.2-0.2,0.2h-0.1h-0.1
	C57.1,71.6,57.1,71.6,57.1,71.6z M50.6,57.2c0.8,0,1.5-0.4,2-1.3c0.5-0.8,0.7-1.6,0.8-2.6c0.1-0.6,0.1-1.2,0.1-2v-0.4
	c0-0.6-0.1-1.3-0.3-2C53,48,52.5,47.4,51.9,47c-0.3-0.2-0.7-0.4-1.2-0.4c-0.1,0-0.2,0.2-0.3,0.5c-0.2,0.6-0.4,1.5-0.4,2.8
	c-0.1,0.5-0.2,1.2-0.2,1.9V53c-0.1,1.6-0.1,2.9-0.1,3.9V57h0.1h0.3h0.5V57.2z"/>
<path d="M69.7,70.2c0,0-0.1-0.3-0.2-0.8c0-0.1,0-0.2,0-0.4c0-0.3,0.1-0.7,0.2-1.2c0.1-0.4,0.1-0.6,0.1-0.8c0-0.2,0.1-0.4,0.1-0.5
	c0.8-3.8,1.6-7.2,2.4-10.1l2.8-12.8c0-0.1,0-0.1,0.1-0.2c0.1-0.1,0.2-0.2,0.3-0.2h0.2c0,0,0,0,0.1,0c0.3,0,0.7,0,1.1-0.1
	S77.7,43,78,43c0.6,0,1.2,0,1.7,0.1c0.2,0,0.5,0,0.8,0s0.6,0,0.9,0c0.1,0,0.2,0,0.4-0.1h0.7h0.9h1c0.2,0,0.4,0,0.7,0
	c0.2,0,0.3,0,0.3,0h0.7h1.4h1.7c1.5,0,2.5,0,3,0.1c0.1,0,0.2,0,0.3,0c0.1,0,0.2,0,0.3,0.1c0.2,0,0.4,0,0.6,0s0.4,0,0.5,0
	c0.4-0.1,0.7-0.1,1.1-0.1c0.2,0,0.3,0,0.5,0.1s0.3,0.1,0.5,0.1h0.2h0.1c0.1,0.1,0.2,0.1,0.3,0.2c0.1,0.1,0.1,0.2,0.1,0.2l2.8,12.8
	c0.9,3.2,1.7,6.5,2.4,10.1c0,0.2,0.1,0.3,0.2,0.5c0,0.2,0.1,0.4,0.1,0.8c0.1,0.3,0.1,0.6,0.1,0.8c0,0.1,0,0.3,0,0.4
	c0,0.4-0.1,0.7-0.2,0.9c-0.1,0.2-0.3,0.2-0.5,0.2h-0.5c-0.4,0-0.7,0-0.9,0h-1.1h-1h-0.8c-0.2,0-0.3,0-0.3,0h-2.6v-0.1
	C94.3,70,94.2,70,94,70l-0.1,0.1c0,0.1,0,0.1-0.1,0.1h-0.1h-0.3c-0.1-0.1-0.4-0.1-0.8-0.1C91.8,70,91.1,70,90.7,70
	c-0.2-0.2-0.3-0.7-0.5-1.5c-0.2-0.7-0.4-1.5-0.5-2.4c-0.1-0.4-0.1-0.7-0.2-0.9c-0.6,0.1-1.3,0.2-2.2,0.2H86h-1.2l-0.3,1.3
	c-0.4,1.8-0.6,2.9-0.9,3.3c-0.1,0-0.2,0-0.4,0.1c-0.1,0-0.1,0.1-0.2,0.1h-0.2c-0.2,0-0.3,0-0.4-0.1c0.1-0.1,0-0.1-0.1-0.1l-1.8,0.1
	h-0.7h-0.6c-0.1,0.1-0.2,0.1-0.4,0.1h-0.2h-3.7h-0.4c-0.3,0-0.9,0-1.8,0h-1.1c-0.2,0-0.5,0-0.9,0h-0.5
	C69.9,70.2,69.7,70.2,69.7,70.2z M88.7,58.3c-0.1-0.4-0.2-1.1-0.4-2.2c-0.1-0.3-0.2-1-0.4-2.2l-0.3-2c-0.1-0.5-0.2-1-0.2-1.4V50
	c-0.1-0.1-0.1-0.3-0.1-0.4v-0.2c0,0.1,0,0.1,0,0.2c0,0.1,0,0.2-0.1,0.2V50l-0.1,0.5c0,0.2-0.1,0.4-0.1,0.6c0,0.2-0.1,0.5-0.1,0.8
	L86.7,53c-0.3,1.7-0.5,2.7-0.5,3s-0.1,0.7-0.2,1.3c-0.1,0.2-0.1,0.5-0.2,0.9l-0.3,1.9h2.1l0.3-0.1H88c0.3,0,0.6,0,0.7,0.1
	c0.1,0,0.2,0,0.3,0.1c0.1,0,0.2,0.1,0.3,0.1C88.8,58.9,88.7,58.3,88.7,58.3z"/>
<path d="M112.3,71.1c0,0-0.8-0.5-2.5-1.5c-1.9-0.9-3.5-2.4-4.7-4.6c-1.4-2.4-2-5.2-2-8.5c0-2.3,0.4-4.4,1.2-6.2
	c0.8-1.8,2-3.4,3.5-4.7c1.5-1.2,3.2-2.2,5.2-2.8c2-0.7,4.2-1,6.5-1c3.5,0,7,0.9,10.7,2.6l-1.6,6.9c-0.2-0.1-0.4-0.1-0.7-0.2
	c-0.3-0.1-0.5-0.2-0.9-0.2c-1.5-0.4-2.6-0.6-3.3-0.7c-0.7-0.1-1.2-0.2-1.6-0.2c-1.7,0-3,0.5-3.9,1.4c-1.1,1.1-1.6,2.8-1.6,5.3
	c0,2.3,0.3,3.9,1,4.9c0.6,0.9,1.4,1.4,2.5,1.4c0.7,0,1.5-0.2,2.4-0.6c0-0.4,0-1.1-0.1-2v-0.9c0-0.6,0-1.5,0-2.8v-1.1
	c0-0.2,0-0.4,0.1-0.5s0.2-0.1,0.4-0.1c0.1,0,0.3,0,0.7,0h4.3c1.3,0,2.1,0,2.5,0c0.7,0,1.2,0,1.4,0c0.4,0.1,0.6,0.2,0.7,0.4
	c0.1,0.2,0.2,0.5,0.2,0.8c0,0.1,0,0.3,0,0.4V57v0.7V59v4.1v0.2c0,0.1-0.1,0.2-0.1,0.4c0,0.1,0,0.3,0,0.4v0.2c0,1.7,0,2.9-0.1,3.6
	c-0.1,1.1-0.1,1.8-0.3,2.1c-0.7,0-1.2,0-1.6,0.1h-0.9h0.3c-0.2,0-0.4,0-0.4,0l-0.1-0.1h-0.1l-0.1,0.1h-4.1H125h-0.4h-0.5
	c-0.1,0-0.2,0-0.3,0c-0.1,0-0.2-0.1-0.3-0.2c-0.2-0.5-0.3-1.1-0.3-1.7c-0.1-0.3-0.1-0.8-0.2-1.4c-0.2,1.4-1.1,2.5-2.6,3.2
	c-1.3,0.7-3,1.1-5,1.1C113.4,71.1,112.3,71.1,112.3,71.1z"/>
<path d="M174.3,70.2h-0.8h-0.7h-0.4l-1.8-0.4l-0.1-0.3c0,0,0-0.1,0-0.4c-0.1-0.8-0.1-1.7-0.1-2.8c0-0.8,0-1.4-0.1-1.8
	c0-0.8,0-1.3,0-1.7v-1.4c-0.1-1.2-0.2-2.6-0.2-4.1s0-2.9,0-4.3l0.1-4.1c0-0.5,0-1.2,0-2.1c0-0.9,0-1.7,0-2.1
	c-0.1-0.6,0.1-1.1,0.5-1.4c0.3-0.1,0.7-0.2,1.4-0.2c1,0,2.3,0,3.9-0.1l0.9-0.1c1.6-0.1,2.6-0.2,3-0.2s0.7,0,0.8,0
	c0.4,0,0.6,0.1,0.8,0.2c0.1,0.1,0.3,0.2,0.4,0.4c0.1,0.2,0.2,0.3,0.3,0.4c0.3,0.4,0.7,0.9,1,1.4c0.5,0.7,0.9,1.3,1.2,1.7l2.7,4.1
	l1.3,2c0-0.7,0-1.3,0.1-1.7v-3.8l0.1-2.9c0-0.2,0.1-0.4,0.1-0.4c0-0.1,0.1-0.1,0.1-0.2c0.1,0,0.1-0.1,0.1-0.1c0.3-0.3,0.7-0.5,1-0.6
	s0.5-0.1,0.7-0.1h2.3h0.5c0.2,0,0.6,0,1.1,0c0.6,0,1.1,0,1.4,0h1.4h1.1h0.5c0.7,0,1.2,0.1,1.4,0.3c0.3,0.2,0.4,0.7,0.4,1.4v0.4v0.7
	c0,0.2,0,0.4,0,0.7V47v0.3l0.1,0.4V49c0,0.5,0,1.2,0,2.4v3c0,0.7,0,1.7,0,3v2.4v1.4v6.4l-0.2,1.5c-0.1,0.6-0.3,1-0.7,1.1h-0.7h-0.7
	h-1.8h-2.4h-2.5H191c-0.5,0.1-1.1,0-1.6-0.2c-0.2-0.1-0.5-0.3-0.8-0.5l-4.1-5.8c0,0-0.3-0.5-0.9-1.5c-0.2-0.3-0.4-0.6-0.6-0.9
	c-0.1-0.1-0.1-0.2-0.2-0.3c-0.1-0.1-0.1-0.1-0.1-0.1c-0.2,0-0.4,0.1-0.4,0.3v0.9c0,0.3,0,0.7,0,1.3V65v1.5c-0.1,0.3-0.1,0.7-0.1,1.2
	v0.8v0.6v0.2c0,0.2-0.1,0.4-0.3,0.4c-0.1,0.1-0.4,0.1-0.7,0.1c-0.9,0.1-1.7,0.1-2.2,0.2c-0.3,0-0.9,0.1-1.7,0.1
	c-0.8,0.1-1.6,0.1-2.3,0.1C174.7,70.3,174.5,70.3,174.3,70.2z"/>
<path d="M208.7,70.5c-1.9-0.5-3.5-1.1-4.8-1.9c-0.3-1-0.6-2-0.7-2.9c-0.2-1-0.4-2.4-0.6-4.2v-0.1c0.1-0.3,0.2-0.6,0.5-0.7
	c1,0.6,2,1.1,3,1.4c0.9,0.3,2,0.5,3.1,0.5h1h0.7c0.6,0,1.3-0.1,1.9-0.3c0.4-0.1,0.6-0.4,0.7-0.8l-2.2-1.1c-1.7-0.8-3.1-1.6-4.5-2.5
	c-1.4-1-2.4-2.3-3-3.8c-0.3-0.8-0.4-1.8-0.4-2.8c0-2.4,0.7-4.4,2.2-5.9c1.3-1.3,3.1-2.3,5.3-2.8c1.9-0.5,4-0.7,6.3-0.7
	c1.4,0,3.2,0.1,5.6,0.4c0.2,0.1,0.6,0.1,1,0.2l1.2,0.2c0.9,0.2,1.6,0.2,2,0.2c0,0,0.1,0,0.1,0.1c0.1,0.1,0.1,0.1,0.2,0.2
	c0.1,0.2,0.2,0.3,0.3,0.3l0,0l0,0l0.1,0.9c0,0.4,0,0.8,0.1,1.3c0.1,0.7,0.1,1.4,0.1,2.2c0,0.7,0,1.2-0.1,1.5
	c-0.1,0.5-0.4,0.9-0.7,1.2l-3.8-0.5h-0.4h-0.6c-0.9,0-2,0.1-3.2,0.3l-1.3,0.3c-0.3,0.1-0.5,0.1-0.5,0.2c0,0.7,0.4,1.3,1.3,1.8
	c0.4,0.2,0.8,0.4,1.2,0.5s0.7,0.3,0.8,0.3c2,0.6,3.7,1.6,5.2,3c0.7,0.7,1.2,1.3,1.6,2.1c0.4,0.7,0.6,1.4,0.6,2.1
	c0,0.4-0.1,0.8-0.2,1.3c-0.2,2-1,3.8-2.3,5.3c-1.3,1.3-3,2.3-5,2.9c-1.7,0.6-3.8,0.9-6.3,0.9C212.6,71.2,210.7,70.9,208.7,70.5z"/>
<path class="st1" d="M161,37.6c-2.9-3.6-6.2-4.6-8.7-4.6c-3.4,0-6.4,1.6-8.3,3.4c-3.3,3-11,14.9-6.7,26.8c0.6,1.7,1.7,3.3,3.7,4.9
	l0,0l2.4-0.5l1.5-3.4l-0.5,4.2l-1.6,0.9c0.3,0.2,0.6,0.3,0.9,0.5c1.8,0.9,5.3,1.8,8.3,1.8c3.7,0,5.9-0.5,7.9-1.3
	c3.4-1.4,5.7-4.9,6.6-7.8C170.2,51.4,163.9,41.1,161,37.6z M153.1,42c0.5,0,2.8,1.5,3.3,2.5s0.5,2,0,2.1s-1.5,0.9-2.3,1.1
	c-0.8,0.2-0.5-0.8-0.5-1.5s-1.1-3.1-1.1-3.1C151.9,41.6,152.6,42,153.1,42z M150.1,41.4c0.9-0.5,0.5,0.5,0.5,1.2s-0.9,3.3-0.6,3.9
	c0.3,0.6-0.6,1.8-1.4,1.8c-0.1,0-0.2,0-0.3,0l-0.6-1.8l-0.2-2.6C148.5,42.8,149.6,41.7,150.1,41.4z M145.9,46.6
	c0.1-0.5,0.7-1.4,1.4-2.3V46l0.7,2.4c-0.5-0.1-0.8-0.3-0.8-0.3C146.2,48.1,145.6,47.8,145.9,46.6z M141.6,49.9
	c1.3-4,2.5-3.5,2.5-3.2s-0.1,1.5,0.8,2.1s-0.4,1.9-1.1,1.6c-0.7-0.3-0.7,0.3-1.5,0.5C141.4,51.1,141.6,49.9,141.6,49.9z M144.5,57.9
	c-2.1-0.9-3.6-3-2.5-3.5c0,0,1.3-0.5,2-1s1.4-0.9,2.2-0.5c0.6,0.3,1.4,0.4,1.7,0.2l2.1,3l2.6,5.5c-2,0.1-4,0.1-5-0.7
	C146.1,59.9,146.6,58.8,144.5,57.9z M151.8,66.7c-1.1-0.4-0.5-0.9-1.5-1.9c-1-1.1,0.5-1.3,0.5-1.3s1,0.1,2.1,0c0.2,0,0.3,0,0.4,0
	l1,2.1C153.6,66.3,152.5,66.9,151.8,66.7z M154.4,65.5l-0.9-2.1c0.8-0.1,1.4-0.2,1.6,0.7C155.1,64.4,154.8,65,154.4,65.5z M160,56.2
	c-0.2,1.1-1.1,3.6-2.8,4.7l-1.5-4.7c0,0,0.6,3.2,1,5c-0.4,0.2-0.7,0.3-1.1,0.3c-0.8,0.1-1.8,0.1-2.7,0.2l-2.6-6.1l-2-2.9l0.1-0.9
	c0.3-0.3,0.8-0.7,1.3-0.9c0.9-0.5,1.9-0.3,3.2,0s2.4,1,2.1,1.6c-0.3,0.7,0.2,1.2,1.2,1.2s1.8,0.2,2.3,0.7
	C159,55,160.2,54.8,160,56.2z M161.1,50.9c-0.9-0.1-0.9,0.8-1.7,1c-0.8,0.1-1.1-1.3-0.9-2.2c0.2-0.9,0-2.2,0-2.2
	c0-2.2,3.3,1.5,4.2,2.7C163.7,51.3,162,51,161.1,50.9z"/>
</svg>
