<svg width="32" height="32" fill="none" xmlns="http://www.w3.org/2000/svg"><path d="M29.723 5.634c-.272 1.83-2.577 18.02-2.712 18.834-.136.814-.271 2.78-1.966 2.712-1.695-.068-9.899-5.743-9.899-5.743s-1.898-1.037-.813-2.393c1.084-1.356 8.203-6.983 8.61-8.068.407-1.084-.204-1.22-1.424-.406-1.22.813-9.22 7.206-11.457 7.796-2.238.59-7.655-1.695-7.858-2.101 0 0-.658-.679.671-1.716.048.007 1.309-.57 1.37-.57 0 0 21.07-8.216 22.359-9.003 1.288-.786 3.39-1.172 3.119.658Z" fill="#fff"/><path d="M2.74 15.2s.067.658 1.491 1.2c1.424.543 4.136 1.153 6.237.543 2.102-.61 11.933-7.594 12.204-6.78 0 0-7.526 5.268-10.848 7.349-3.322 2.081-8.237-.495-8.237-.495s-2.407-.983-.848-1.817ZM14.74 18.909s.338 1.152 1.83 2.237c1.491 1.085 6.983 4.61 7.525 4.373.543-.238 1.465-.393 2.088-4.082.624-3.688 3.438-16.657 3.438-16.657l-2.922 21.152s-.44 1.58-1.993 1.248c-1.553-.332-5.146-3.438-7.275-4.21-2.136-.767-4.481-2.122-2.692-4.061Z" fill="#D8D8D8"/><path d="M26.184 4.787C22.59 6.224 6.285 12.298 2.848 14.312c-.38.237-.807.583-.929.936-.339 1.017.271 1.539 2.237 2.264 1.967.719 4.814 1.736 5.899 1.532 1.085-.203 11.186-7.796 11.186-7.796s.882-.882 1.017-.543c.136.34-.949 1.716-2.101 2.515-1.153.8-6.238 5.62-6.238 5.62s-1.424 1.065.34 2.597c1.762 1.54 10.1 6.082 10.1 6.082s2.17 2.102 2.848-2.373c.678-4.475 2.644-18.014 2.848-19.512.203-1.498.25-2.502-3.871-.847Zm3.132 1.511a5863.85 5863.85 0 0 1-2.848 18.577c-.135.813-.27 2.034-1.966 1.966-1.695-.068-9.423-6.034-9.423-6.034s-1.085-.881 0-2.237c1.084-1.356 7.457-6.509 7.864-7.594.407-1.084-.204-1.22-1.424-.406-1.22.813-9.356 6.752-11.593 7.342-2.237.59-7.186-1.261-7.22-1.695 0 0-.489-1.05.61-1.613 2.203-.861 22.745-8.889 23.966-9.628 1.288-.78 2.305-.501 2.034 1.322Z" fill="#000"/></svg>