<svg width="32" height="32" viewBox="0 0 32 32" fill="none" xmlns="http://www.w3.org/2000/svg">
<path d="M27.2603 26.0741C27.2603 26.0741 18.9598 14.9321 18.6817 14.5252C18.4647 14.2133 18.797 13.942 18.797 13.942C18.797 13.942 27.0636 4.89552 27.145 4.69886C27.2196 4.50219 26.9483 4.49541 26.9483 4.49541C26.9483 4.49541 24.9003 4.41404 24.6562 4.40725C24.3443 4.40047 23.9441 4.78702 23.9441 4.78702C23.9441 4.78702 17.8001 12.7078 17.5289 12.7485C17.2576 12.7892 17.1898 12.6128 17.1898 12.6128C17.1898 12.6128 12.28 4.94977 12.0901 4.71242C11.8935 4.48185 11.7036 4.48185 11.7036 4.48185C11.7036 4.48185 5.49852 4.60392 5.2137 4.67851C4.92888 4.75311 5.2137 5.17356 5.2137 5.17356L13.4396 16.9598C13.6431 17.2649 13.3989 17.699 13.3989 17.699C13.3989 17.699 5.25439 26.7861 4.86784 27.1388C4.4813 27.4914 4.86784 27.6542 4.86784 27.6542C4.86784 27.6542 6.4208 27.6135 6.73275 27.6542C7.0447 27.6949 7.61434 27.2473 7.61434 27.2473C7.61434 27.2473 14.0635 19.5571 14.3619 19.157C14.606 18.8315 14.8909 19.1027 14.8909 19.1027C14.8909 19.1027 19.5701 26.1826 19.9431 26.7319C20.3839 27.3829 21.0959 27.4439 21.0959 27.4439C21.0959 27.4439 25.3004 27.4236 26.6771 27.3219C27.4705 27.2676 27.2603 26.0741 27.2603 26.0741ZM23.9441 25.7689C23.9441 25.7689 23.2728 25.7689 22.4251 25.7689C21.5774 25.7689 20.7975 24.7992 20.7975 24.7992C20.7975 24.7992 8.47559 6.67905 8.20433 6.33998C7.93307 6.0009 8.64513 5.96699 8.64513 5.96699C8.64513 5.96699 9.21477 5.89918 9.85901 5.89918C10.5033 5.89918 11.0526 6.30607 11.0526 6.30607C11.0526 6.30607 23.6661 24.5822 24.073 25.2264C24.4799 25.8706 23.9441 25.7689 23.9441 25.7689Z" fill="white"/>
<path d="M5.31537 26.6641C5.31537 26.6641 5.35606 27.0235 6.10202 27.0235C6.84798 27.0235 7.45832 26.5827 7.79739 26.1419C8.13647 25.7011 14.4771 18.6144 14.4771 18.6144C14.4771 18.6144 14.6128 18.4585 14.7484 18.784C14.884 19.1095 10.3744 23.5988 7.60751 27.2473C7.60751 27.2473 7.21418 27.5389 6.56994 27.6541C5.9257 27.7694 4.68469 27.6541 4.68469 27.6541C4.68469 27.6541 4.75929 26.8811 5.31537 26.6641Z" fill="#D8D8D8"/>
<path d="M19.3802 25.9045C19.3802 25.9045 19.9702 26.7115 21.5299 26.6641C23.0897 26.6166 26.0735 26.6166 26.0735 26.6166C26.0735 26.6166 26.4465 26.5556 26.2431 25.7757C26.0396 24.9958 18.7834 14.9185 18.7834 14.9185L27.2874 26.2775C27.2874 26.2775 27.8978 27.3965 27.0569 27.4439C26.2159 27.4914 20.8586 27.5118 20.8586 27.5118C20.8586 27.5118 19.7803 27.1252 19.3802 25.9045Z" fill="#D8D8D8"/>
<path d="M26.3787 4.47507C26.3787 4.47507 26.7517 4.6107 26.3787 5.01759C26.0057 5.42447 17.9019 13.7386 18.4444 14.3421L27.2874 4.74633C27.2874 4.74633 27.4299 4.51576 26.3787 4.47507Z" fill="#D8D8D8"/>
<path d="M24.3104 25.2603C23.9035 24.616 11.1882 6.1365 11.1882 6.1365C11.1882 6.1365 11.0187 5.88559 10.3744 5.88559C9.73018 5.88559 8.20435 5.88559 8.20435 5.88559C8.20435 5.88559 7.59401 5.93306 7.86527 6.27213C8.13653 6.61121 20.6484 24.8534 20.6484 24.8534C20.6484 24.8534 21.1231 25.9045 21.9707 25.9045C22.8184 25.9045 24.3104 25.9045 24.3104 25.9045C24.3104 25.9045 24.7172 25.9045 24.3104 25.2603Z" fill="white"/>
<path d="M27.6535 26.2775C26.7584 24.7991 18.9258 14.6744 18.9258 14.6744C18.9258 14.6744 18.6952 14.3557 18.9665 14.0505C19.353 13.6233 27.6535 4.7124 27.6535 4.7124C27.6535 4.7124 27.8909 4.21735 27.3823 4.21735C26.8737 4.21735 24.5815 4.21735 24.5815 4.21735C24.5815 4.21735 24.1679 4.11563 23.8559 4.59711C23.6525 4.92262 17.5627 12.4975 17.5627 12.4975C17.5627 12.4975 17.366 12.7281 16.9388 12.0296C16.5116 11.3311 12.3545 4.87515 12.3545 4.87515C12.3545 4.87515 12.2392 4.39367 11.2627 4.39367C10.2862 4.39367 4.44053 4.29873 4.44053 4.29873C4.44053 4.29873 4.16927 4.46826 4.44053 4.8955C4.71179 5.32273 13.0123 16.7021 13.0123 16.7021C13.0123 16.7021 13.4328 17.1496 13.2429 17.5972L4.27099 27.5185C4.27099 27.5185 4.06077 27.8237 4.42697 27.8644C4.79317 27.9051 7.08531 28 7.08531 28C7.08531 28 7.51932 27.9457 7.83127 27.5185C8.14322 27.0913 14.2737 19.6656 14.2737 19.6656C14.2737 19.6656 14.7145 19.0213 15.0061 19.6113C15.2095 20.0182 19.787 27.2473 19.787 27.2473C19.787 27.2473 20.2753 27.9932 20.6211 27.9932C20.967 27.9932 27.6942 27.722 27.6942 27.722C27.6942 27.722 28.5555 27.7559 27.6535 26.2775ZM26.616 27.0438C25.2393 27.1455 21.0552 27.1794 21.0552 27.1794C21.0552 27.1794 20.5126 27.1794 20.0718 26.5284C19.6989 25.9791 14.884 18.7568 14.884 18.7568C14.884 18.7568 14.6602 18.4313 14.4161 18.7568C14.1177 19.1569 7.39047 27.0913 7.39047 27.0913C7.39047 27.0913 6.90899 27.5524 6.59704 27.5117C6.28509 27.471 5.31534 27.5117 5.31534 27.5117C5.31534 27.5117 4.9288 27.349 5.31534 26.9963C5.70189 26.6437 13.5616 17.7803 13.5616 17.7803C13.5616 17.7803 13.8125 17.3463 13.6023 17.0411L5.6951 5.32951C5.6951 5.32951 5.41028 4.91584 5.6951 4.83446C5.97993 4.75309 11.5407 4.60389 11.5407 4.60389C11.5407 4.60389 11.7374 4.60389 11.9273 4.83446C12.1239 5.06503 17.0609 12.6128 17.0609 12.6128C17.0609 12.6128 17.4949 13.2232 17.7661 13.1892C18.0374 13.1486 24.2899 4.99722 24.2899 4.99722C24.2899 4.99722 24.69 4.60389 25.002 4.61746C25.2461 4.62424 26.6634 4.60389 26.6634 4.60389C26.6634 4.60389 26.9347 4.61067 26.8601 4.80734C26.7787 4.99722 18.6138 13.9759 18.6138 13.9759C18.6138 13.9759 18.2815 14.2472 18.4985 14.5591C18.7766 14.9592 26.8737 26.1487 26.8737 26.1487C26.8737 26.1487 27.4162 26.9896 26.616 27.0438Z" fill="black"/>
</svg>
